G04 EasyPC Gerber Version 20.0.2 Build 4112 *
G04 #@! TF.Part,Single*
G04 #@! TF.FileFunction,Legend,Bot *
%FSLAX35Y35*%
%MOIN*%
%ADD11C,0.00004*%
%ADD14C,0.00079*%
%ADD12C,0.00157*%
X0Y0D02*
D02*
D11*
X77413Y137346D02*
Y177665D01*
X147432Y177673*
X150637Y177665*
Y174520*
X154972*
Y174720*
X150838*
Y180287*
G75*
G02X159503I4333*
G01*
Y128102*
G75*
G02X150838I-4333*
G01*
Y166299*
X154972*
Y166500*
X150637*
Y137362*
X77413Y137346*
Y216087D02*
Y256406D01*
X147432Y256413*
X150637Y256406*
Y253260*
X154972*
Y253461*
X150838*
Y259028*
G75*
G02X159503I4333*
G01*
Y206843*
G75*
G02X150838I-4333*
G01*
Y245039*
X154972*
Y245240*
X150637*
Y216102*
X77413Y216087*
Y294827D02*
Y335146D01*
X147432Y335154*
X150637Y335146*
Y332000*
X154972*
Y332201*
X150838*
Y337768*
G75*
G02X159503I4333*
G01*
Y285583*
G75*
G02X150838I-4333*
G01*
Y323780*
X154972*
Y323980*
X150637*
Y294843*
X77413Y294827*
X77436Y58622D02*
X150669D01*
Y91335*
X154613*
Y101925*
X157755*
Y55622*
X154613*
Y89331*
X152641*
Y48764*
G75*
G03X159724I3541*
G01*
Y97815*
X159771Y102543*
G75*
G03X152641I-3565*
G01*
Y98961*
X77417*
X77436Y98941*
Y58622*
X80602Y373583D02*
Y413898D01*
X150684Y413925*
Y410772*
X155019*
Y410972*
X150881*
Y419996*
G75*
G02X153669Y422783I2787*
G01*
X159363*
G75*
G02X162106Y420041J-2743*
G01*
Y358581*
G75*
G02X159374Y355850I-2731*
G01*
X153654*
G75*
G02X150881Y358623J2773*
G01*
Y402551*
X154731*
Y402752*
X150684*
Y373614*
X80602Y373583*
X175838Y137346D02*
Y177665D01*
X245857Y177673*
X249062Y177665*
Y174520*
X253397*
Y174720*
X249263*
Y180287*
G75*
G02X257928I4333*
G01*
Y128102*
G75*
G02X249263I-4333*
G01*
Y166299*
X253397*
Y166500*
X249062*
Y137362*
X175838Y137346*
Y216087D02*
Y256406D01*
X245857Y256413*
X249062Y256406*
Y253260*
X253397*
Y253461*
X249263*
Y259028*
G75*
G02X257928I4333*
G01*
Y206843*
G75*
G02X249263I-4333*
G01*
Y245039*
X253397*
Y245240*
X249062*
Y216102*
X175838Y216087*
Y294827D02*
Y335146D01*
X245857Y335154*
X249062Y335146*
Y332000*
X253397*
Y332201*
X249263*
Y337768*
G75*
G02X257928I4333*
G01*
Y285583*
G75*
G02X249263I-4333*
G01*
Y323780*
X253397*
Y323980*
X249062*
Y294843*
X175838Y294827*
X175861Y58622D02*
X249094D01*
Y91335*
X253039*
Y101925*
X256180*
Y55622*
X253039*
Y89331*
X251066*
Y48764*
G75*
G03X258149I3541*
G01*
Y97815*
X258196Y102543*
G75*
G03X251066I-3565*
G01*
Y98961*
X175842*
X175861Y98941*
Y58622*
X179027Y373583D02*
Y413898D01*
X249109Y413925*
Y410772*
X253444*
Y410972*
X249306*
Y419996*
G75*
G02X252094Y422783I2787*
G01*
X257788*
G75*
G02X260531Y420041J-2743*
G01*
Y358581*
G75*
G02X257800Y355850I-2731*
G01*
X252079*
G75*
G02X249306Y358623J2773*
G01*
Y402551*
X253157*
Y402752*
X249109*
Y373614*
X179027Y373583*
X274263Y137346D02*
Y177665D01*
X344283Y177673*
X347487Y177665*
Y174520*
X351822*
Y174720*
X347688*
Y180287*
G75*
G02X356354I4333*
G01*
Y128102*
G75*
G02X347688I-4333*
G01*
Y166299*
X351822*
Y166500*
X347487*
Y137362*
X274263Y137346*
Y216087D02*
Y256406D01*
X344283Y256413*
X347487Y256406*
Y253260*
X351822*
Y253461*
X347688*
Y259028*
G75*
G02X356354I4333*
G01*
Y206843*
G75*
G02X347688I-4333*
G01*
Y245039*
X351822*
Y245240*
X347487*
Y216102*
X274263Y216087*
Y294827D02*
Y335146D01*
X344283Y335154*
X347487Y335146*
Y332000*
X351822*
Y332201*
X347688*
Y337768*
G75*
G02X356354I4333*
G01*
Y285583*
G75*
G02X347688I-4333*
G01*
Y323780*
X351822*
Y323980*
X347487*
Y294843*
X274263Y294827*
X274287Y58622D02*
X347519D01*
Y91335*
X351464*
Y101925*
X354606*
Y55622*
X351464*
Y89331*
X349491*
Y48764*
G75*
G03X356574I3541*
G01*
Y97815*
X356621Y102543*
G75*
G03X349491I-3565*
G01*
Y98961*
X274267*
X274287Y98941*
Y58622*
X277452Y373583D02*
Y413898D01*
X347535Y413925*
Y410772*
X351869*
Y410972*
X347731*
Y419996*
G75*
G02X350519Y422783I2787*
G01*
X356213*
G75*
G02X358956Y420041J-2743*
G01*
Y358581*
G75*
G02X356225Y355850I-2731*
G01*
X350504*
G75*
G02X347731Y358623J2773*
G01*
Y402551*
X351582*
Y402752*
X347535*
Y373614*
X277452Y373583*
X372688Y137346D02*
Y177665D01*
X442708Y177673*
X445913Y177665*
Y174520*
X450247*
Y174720*
X446113*
Y180287*
G75*
G02X454779I4333*
G01*
Y128102*
G75*
G02X446113I-4333*
G01*
Y166299*
X450247*
Y166500*
X445913*
Y137362*
X372688Y137346*
Y216087D02*
Y256406D01*
X442708Y256413*
X445913Y256406*
Y253260*
X450247*
Y253461*
X446113*
Y259028*
G75*
G02X454779I4333*
G01*
Y206843*
G75*
G02X446113I-4333*
G01*
Y245039*
X450247*
Y245240*
X445913*
Y216102*
X372688Y216087*
Y294827D02*
Y335146D01*
X442708Y335154*
X445913Y335146*
Y332000*
X450247*
Y332201*
X446113*
Y337768*
G75*
G02X454779I4333*
G01*
Y285583*
G75*
G02X446113I-4333*
G01*
Y323780*
X450247*
Y323980*
X445913*
Y294843*
X372688Y294827*
X372712Y58622D02*
X445944D01*
Y91335*
X449889*
Y101925*
X453031*
Y55622*
X449889*
Y89331*
X447917*
Y48764*
G75*
G03X454999I3541*
G01*
Y97815*
X455046Y102543*
G75*
G03X447917I-3565*
G01*
Y98961*
X372692*
X372712Y98941*
Y58622*
X375877Y373583D02*
Y413898D01*
X445960Y413925*
Y410772*
X450294*
Y410972*
X446157*
Y419996*
G75*
G02X448944Y422783I2787*
G01*
X454638*
G75*
G02X457381Y420041J-2743*
G01*
Y358581*
G75*
G02X454650Y355850I-2731*
G01*
X448930*
G75*
G02X446157Y358623J2773*
G01*
Y402551*
X450007*
Y402752*
X445960*
Y373614*
X375877Y373583*
X471113Y137346D02*
Y177665D01*
X541133Y177673*
X544338Y177665*
Y174520*
X548672*
Y174720*
X544539*
Y180287*
G75*
G02X553204I4333*
G01*
Y128102*
G75*
G02X544539I-4333*
G01*
Y166299*
X548672*
Y166500*
X544338*
Y137362*
X471113Y137346*
Y216087D02*
Y256406D01*
X541133Y256413*
X544338Y256406*
Y253260*
X548672*
Y253461*
X544539*
Y259028*
G75*
G02X553204I4333*
G01*
Y206843*
G75*
G02X544539I-4333*
G01*
Y245039*
X548672*
Y245240*
X544338*
Y216102*
X471113Y216087*
Y294827D02*
Y335146D01*
X541133Y335154*
X544338Y335146*
Y332000*
X548672*
Y332201*
X544539*
Y337768*
G75*
G02X553204I4333*
G01*
Y285583*
G75*
G02X544539I-4333*
G01*
Y323780*
X548672*
Y323980*
X544338*
Y294843*
X471113Y294827*
X471137Y58622D02*
X544369D01*
Y91335*
X548314*
Y101925*
X551456*
Y55622*
X548314*
Y89331*
X546342*
Y48764*
G75*
G03X553424I3541*
G01*
Y97815*
X553472Y102543*
G75*
G03X546342I-3565*
G01*
Y98961*
X471117*
X471137Y98941*
Y58622*
X474302Y373583D02*
Y413898D01*
X544385Y413925*
Y410772*
X548720*
Y410972*
X544582*
Y419996*
G75*
G02X547369Y422783I2787*
G01*
X553063*
G75*
G02X555806Y420041J-2743*
G01*
Y358581*
G75*
G02X553075Y355850I-2731*
G01*
X547355*
G75*
G02X544582Y358623J2773*
G01*
Y402551*
X548432*
Y402752*
X544385*
Y373614*
X474302Y373583*
D02*
D12*
X81919Y70984D02*
X82805Y70615D01*
X81919Y70246*
X82657Y69065D02*
X82731Y69139D01*
X82805Y69286*
Y69508*
X82731Y69656*
X82657Y69729*
X82510Y69803*
X82215*
X82067Y69729*
X81993Y69656*
X81919Y69508*
Y69286*
X81993Y69139*
X82067Y69065*
X82657Y67884D02*
X82731Y67957D01*
X82805Y68105*
Y68327*
X82731Y68474*
X82657Y68548*
X82510Y68622*
X82215*
X82067Y68548*
X81993Y68474*
X81919Y68327*
Y68105*
X81993Y67957*
X82067Y67884*
X82805Y80433D02*
X81919D01*
Y79916*
X81993Y79769*
X82141Y79695*
X82289Y79769*
X82362Y79916*
Y80433*
Y79916D02*
X82805Y79695D01*
X82584Y79252D02*
X82731Y79178D01*
X82805Y79030*
Y78735*
X82731Y78587*
X82584Y78514*
X82436Y78587*
X82362Y78735*
Y79030*
X82289Y79178*
X82141Y79252*
X81993Y79178*
X81919Y79030*
Y78735*
X81993Y78587*
X82141Y78514*
X82805Y77702D02*
X81919D01*
Y78071D02*
Y77333D01*
X82657Y90325D02*
X82731Y90398D01*
X82805Y90546*
Y90768*
X82731Y90915*
X82657Y90989*
X82510Y91063*
X82215*
X82067Y90989*
X81993Y90915*
X81919Y90768*
Y90546*
X81993Y90398*
X82067Y90325*
X81919Y89882D02*
X82805D01*
Y89144*
Y88701D02*
X81919D01*
X82362D02*
Y88479D01*
X81919Y87963*
X82362Y88479D02*
X82805Y87963D01*
X81919Y149724D02*
X82805Y149355D01*
X81919Y148986*
X82657Y147805D02*
X82731Y147879D01*
X82805Y148026*
Y148248*
X82731Y148396*
X82657Y148469*
X82510Y148543*
X82215*
X82067Y148469*
X81993Y148396*
X81919Y148248*
Y148026*
X81993Y147879*
X82067Y147805*
X82657Y146624D02*
X82731Y146698D01*
X82805Y146845*
Y147067*
X82731Y147215*
X82657Y147288*
X82510Y147362*
X82215*
X82067Y147288*
X81993Y147215*
X81919Y147067*
Y146845*
X81993Y146698*
X82067Y146624*
X82805Y159173D02*
X81919D01*
Y158656*
X81993Y158509*
X82141Y158435*
X82289Y158509*
X82362Y158656*
Y159173*
Y158656D02*
X82805Y158435D01*
X82584Y157992D02*
X82731Y157918D01*
X82805Y157770*
Y157475*
X82731Y157328*
X82584Y157254*
X82436Y157328*
X82362Y157475*
Y157770*
X82289Y157918*
X82141Y157992*
X81993Y157918*
X81919Y157770*
Y157475*
X81993Y157328*
X82141Y157254*
X82805Y156442D02*
X81919D01*
Y156811D02*
Y156073D01*
X82657Y169065D02*
X82731Y169139D01*
X82805Y169286*
Y169508*
X82731Y169656*
X82657Y169729*
X82510Y169803*
X82215*
X82067Y169729*
X81993Y169656*
X81919Y169508*
Y169286*
X81993Y169139*
X82067Y169065*
X81919Y168622D02*
X82805D01*
Y167884*
Y167441D02*
X81919D01*
X82362D02*
Y167219D01*
X81919Y166703*
X82362Y167219D02*
X82805Y166703D01*
X81919Y228465D02*
X82805Y228095D01*
X81919Y227726*
X82657Y226545D02*
X82731Y226619D01*
X82805Y226767*
Y226988*
X82731Y227136*
X82657Y227209*
X82510Y227283*
X82215*
X82067Y227209*
X81993Y227136*
X81919Y226988*
Y226767*
X81993Y226619*
X82067Y226545*
X82657Y225364D02*
X82731Y225438D01*
X82805Y225585*
Y225807*
X82731Y225955*
X82657Y226028*
X82510Y226102*
X82215*
X82067Y226028*
X81993Y225955*
X81919Y225807*
Y225585*
X81993Y225438*
X82067Y225364*
X82805Y237913D02*
X81919D01*
Y237396*
X81993Y237249*
X82141Y237175*
X82289Y237249*
X82362Y237396*
Y237913*
Y237396D02*
X82805Y237175D01*
X82584Y236732D02*
X82731Y236658D01*
X82805Y236511*
Y236215*
X82731Y236068*
X82584Y235994*
X82436Y236068*
X82362Y236215*
Y236511*
X82289Y236658*
X82141Y236732*
X81993Y236658*
X81919Y236511*
Y236215*
X81993Y236068*
X82141Y235994*
X82805Y235182D02*
X81919D01*
Y235551D02*
Y234813D01*
X82657Y247805D02*
X82731Y247879D01*
X82805Y248026*
Y248248*
X82731Y248396*
X82657Y248469*
X82510Y248543*
X82215*
X82067Y248469*
X81993Y248396*
X81919Y248248*
Y248026*
X81993Y247879*
X82067Y247805*
X81919Y247362D02*
X82805D01*
Y246624*
Y246181D02*
X81919D01*
X82362D02*
Y245959D01*
X81919Y245443*
X82362Y245959D02*
X82805Y245443D01*
X81919Y307205D02*
X82805Y306835D01*
X81919Y306467*
X82657Y305285D02*
X82731Y305359D01*
X82805Y305507*
Y305728*
X82731Y305876*
X82657Y305950*
X82510Y306024*
X82215*
X82067Y305950*
X81993Y305876*
X81919Y305728*
Y305507*
X81993Y305359*
X82067Y305285*
X82657Y304104D02*
X82731Y304178D01*
X82805Y304326*
Y304547*
X82731Y304695*
X82657Y304769*
X82510Y304843*
X82215*
X82067Y304769*
X81993Y304695*
X81919Y304547*
Y304326*
X81993Y304178*
X82067Y304104*
X82805Y316654D02*
X81919D01*
Y316137*
X81993Y315989*
X82141Y315915*
X82289Y315989*
X82362Y316137*
Y316654*
Y316137D02*
X82805Y315915D01*
X82584Y315472D02*
X82731Y315398D01*
X82805Y315251*
Y314956*
X82731Y314808*
X82584Y314734*
X82436Y314808*
X82362Y314956*
Y315251*
X82289Y315398*
X82141Y315472*
X81993Y315398*
X81919Y315251*
Y314956*
X81993Y314808*
X82141Y314734*
X82805Y313922D02*
X81919D01*
Y314291D02*
Y313553D01*
X82657Y326545D02*
X82731Y326619D01*
X82805Y326767*
Y326988*
X82731Y327136*
X82657Y327209*
X82510Y327283*
X82215*
X82067Y327209*
X81993Y327136*
X81919Y326988*
Y326767*
X81993Y326619*
X82067Y326545*
X81919Y326102D02*
X82805D01*
Y325364*
Y324921D02*
X81919D01*
X82362D02*
Y324700D01*
X81919Y324183*
X82362Y324700D02*
X82805Y324183D01*
X84675Y385945D02*
X85561Y385576D01*
X84675Y385207*
X85413Y384026D02*
X85487Y384099D01*
X85561Y384247*
Y384469*
X85487Y384616*
X85413Y384690*
X85266Y384764*
X84970*
X84823Y384690*
X84749Y384616*
X84675Y384469*
Y384247*
X84749Y384099*
X84823Y384026*
X85413Y382844D02*
X85487Y382918D01*
X85561Y383066*
Y383287*
X85487Y383435*
X85413Y383509*
X85266Y383583*
X84970*
X84823Y383509*
X84749Y383435*
X84675Y383287*
Y383066*
X84749Y382918*
X84823Y382844*
X85561Y395394D02*
X84675D01*
Y394877*
X84749Y394729*
X84897Y394656*
X85044Y394729*
X85118Y394877*
Y395394*
Y394877D02*
X85561Y394656D01*
X85340Y394213D02*
X85487Y394139D01*
X85561Y393991*
Y393696*
X85487Y393548*
X85340Y393474*
X85192Y393548*
X85118Y393696*
Y393991*
X85044Y394139*
X84897Y394213*
X84749Y394139*
X84675Y393991*
Y393696*
X84749Y393548*
X84897Y393474*
X85561Y392662D02*
X84675D01*
Y393031D02*
Y392293D01*
X85413Y405285D02*
X85487Y405359D01*
X85561Y405507*
Y405728*
X85487Y405876*
X85413Y405950*
X85266Y406024*
X84970*
X84823Y405950*
X84749Y405876*
X84675Y405728*
Y405507*
X84749Y405359*
X84823Y405285*
X84675Y404843D02*
X85561D01*
Y404104*
Y403661D02*
X84675D01*
X85118D02*
Y403440D01*
X84675Y402923*
X85118Y403440D02*
X85561Y402923D01*
X106452Y70467D02*
Y70246D01*
X106526*
X106673Y70320*
X106747Y70394*
X106821Y70541*
Y70689*
X106747Y70837*
X106673Y70910*
X106526Y70984*
X106230*
X106083Y70910*
X106009Y70837*
X105935Y70689*
Y70541*
X106009Y70394*
X106083Y70320*
X106230Y70246*
X106821Y69803D02*
X105935D01*
X106821Y69065*
X105935*
X106821Y68622D02*
X105935D01*
Y68179*
X106009Y68031*
X106083Y67957*
X106230Y67884*
X106526*
X106673Y67957*
X106747Y68031*
X106821Y68179*
Y68622*
Y90841D02*
Y90546D01*
Y90694D02*
X105935D01*
Y90841D02*
Y90546D01*
X106526Y89882D02*
X106230D01*
X106083Y89808*
X106009Y89734*
X105935Y89587*
Y89439*
X106009Y89291*
X106083Y89217*
X106230Y89144*
X106526*
X106673Y89217*
X106747Y89291*
X106821Y89439*
Y89587*
X106747Y89734*
X106673Y89808*
X106526Y89882*
X106452Y149207D02*
Y148986D01*
X106526*
X106673Y149060*
X106747Y149134*
X106821Y149281*
Y149429*
X106747Y149577*
X106673Y149650*
X106526Y149724*
X106230*
X106083Y149650*
X106009Y149577*
X105935Y149429*
Y149281*
X106009Y149134*
X106083Y149060*
X106230Y148986*
X106821Y148543D02*
X105935D01*
X106821Y147805*
X105935*
X106821Y147362D02*
X105935D01*
Y146919*
X106009Y146772*
X106083Y146698*
X106230Y146624*
X106526*
X106673Y146698*
X106747Y146772*
X106821Y146919*
Y147362*
Y169581D02*
Y169286D01*
Y169434D02*
X105935D01*
Y169581D02*
Y169286D01*
X106526Y168622D02*
X106230D01*
X106083Y168548*
X106009Y168474*
X105935Y168327*
Y168179*
X106009Y168031*
X106083Y167957*
X106230Y167884*
X106526*
X106673Y167957*
X106747Y168031*
X106821Y168179*
Y168327*
X106747Y168474*
X106673Y168548*
X106526Y168622*
X106452Y227948D02*
Y227726D01*
X106526*
X106673Y227800*
X106747Y227874*
X106821Y228022*
Y228169*
X106747Y228317*
X106673Y228391*
X106526Y228465*
X106230*
X106083Y228391*
X106009Y228317*
X105935Y228169*
Y228022*
X106009Y227874*
X106083Y227800*
X106230Y227726*
X106821Y227283D02*
X105935D01*
X106821Y226545*
X105935*
X106821Y226102D02*
X105935D01*
Y225659*
X106009Y225512*
X106083Y225438*
X106230Y225364*
X106526*
X106673Y225438*
X106747Y225512*
X106821Y225659*
Y226102*
Y248322D02*
Y248026D01*
Y248174D02*
X105935D01*
Y248322D02*
Y248026D01*
X106526Y247362D02*
X106230D01*
X106083Y247288*
X106009Y247215*
X105935Y247067*
Y246919*
X106009Y246772*
X106083Y246698*
X106230Y246624*
X106526*
X106673Y246698*
X106747Y246772*
X106821Y246919*
Y247067*
X106747Y247215*
X106673Y247288*
X106526Y247362*
X106452Y306688D02*
Y306467D01*
X106526*
X106673Y306540*
X106747Y306614*
X106821Y306762*
Y306909*
X106747Y307057*
X106673Y307131*
X106526Y307205*
X106230*
X106083Y307131*
X106009Y307057*
X105935Y306909*
Y306762*
X106009Y306614*
X106083Y306540*
X106230Y306467*
X106821Y306024D02*
X105935D01*
X106821Y305285*
X105935*
X106821Y304843D02*
X105935D01*
Y304400*
X106009Y304252*
X106083Y304178*
X106230Y304104*
X106526*
X106673Y304178*
X106747Y304252*
X106821Y304400*
Y304843*
Y327062D02*
Y326767D01*
Y326914D02*
X105935D01*
Y327062D02*
Y326767D01*
X106526Y326102D02*
X106230D01*
X106083Y326028*
X106009Y325955*
X105935Y325807*
Y325659*
X106009Y325512*
X106083Y325438*
X106230Y325364*
X106526*
X106673Y325438*
X106747Y325512*
X106821Y325659*
Y325807*
X106747Y325955*
X106673Y326028*
X106526Y326102*
X108814Y385428D02*
Y385207D01*
X108888*
X109035Y385280*
X109109Y385354*
X109183Y385502*
Y385650*
X109109Y385797*
X109035Y385871*
X108888Y385945*
X108593*
X108445Y385871*
X108371Y385797*
X108297Y385650*
Y385502*
X108371Y385354*
X108445Y385280*
X108593Y385207*
X109183Y384764D02*
X108297D01*
X109183Y384026*
X108297*
X109183Y383583D02*
X108297D01*
Y383140*
X108371Y382992*
X108445Y382918*
X108593Y382844*
X108888*
X109035Y382918*
X109109Y382992*
X109183Y383140*
Y383583*
Y405802D02*
Y405507D01*
Y405654D02*
X108297D01*
Y405802D02*
Y405507D01*
X108888Y404843D02*
X108593D01*
X108445Y404769*
X108371Y404695*
X108297Y404547*
Y404400*
X108371Y404252*
X108445Y404178*
X108593Y404104*
X108888*
X109035Y404178*
X109109Y404252*
X109183Y404400*
Y404547*
X109109Y404695*
X109035Y404769*
X108888Y404843*
X180344Y70984D02*
X181230Y70615D01*
X180344Y70246*
X181083Y69065D02*
X181157Y69139D01*
X181230Y69286*
Y69508*
X181157Y69656*
X181083Y69729*
X180935Y69803*
X180640*
X180492Y69729*
X180419Y69656*
X180344Y69508*
Y69286*
X180419Y69139*
X180492Y69065*
X181083Y67884D02*
X181157Y67957D01*
X181230Y68105*
Y68327*
X181157Y68474*
X181083Y68548*
X180935Y68622*
X180640*
X180492Y68548*
X180419Y68474*
X180344Y68327*
Y68105*
X180419Y67957*
X180492Y67884*
X181230Y80433D02*
X180344D01*
Y79916*
X180419Y79769*
X180566Y79695*
X180714Y79769*
X180787Y79916*
Y80433*
Y79916D02*
X181230Y79695D01*
X181009Y79252D02*
X181157Y79178D01*
X181230Y79030*
Y78735*
X181157Y78587*
X181009Y78514*
X180861Y78587*
X180787Y78735*
Y79030*
X180714Y79178*
X180566Y79252*
X180419Y79178*
X180344Y79030*
Y78735*
X180419Y78587*
X180566Y78514*
X181230Y77702D02*
X180344D01*
Y78071D02*
Y77333D01*
X181083Y90325D02*
X181157Y90398D01*
X181230Y90546*
Y90768*
X181157Y90915*
X181083Y90989*
X180935Y91063*
X180640*
X180492Y90989*
X180419Y90915*
X180344Y90768*
Y90546*
X180419Y90398*
X180492Y90325*
X180344Y89882D02*
X181230D01*
Y89144*
Y88701D02*
X180344D01*
X180787D02*
Y88479D01*
X180344Y87963*
X180787Y88479D02*
X181230Y87963D01*
X180344Y149724D02*
X181230Y149355D01*
X180344Y148986*
X181083Y147805D02*
X181157Y147879D01*
X181230Y148026*
Y148248*
X181157Y148396*
X181083Y148469*
X180935Y148543*
X180640*
X180492Y148469*
X180419Y148396*
X180344Y148248*
Y148026*
X180419Y147879*
X180492Y147805*
X181083Y146624D02*
X181157Y146698D01*
X181230Y146845*
Y147067*
X181157Y147215*
X181083Y147288*
X180935Y147362*
X180640*
X180492Y147288*
X180419Y147215*
X180344Y147067*
Y146845*
X180419Y146698*
X180492Y146624*
X181230Y159173D02*
X180344D01*
Y158656*
X180419Y158509*
X180566Y158435*
X180714Y158509*
X180787Y158656*
Y159173*
Y158656D02*
X181230Y158435D01*
X181009Y157992D02*
X181157Y157918D01*
X181230Y157770*
Y157475*
X181157Y157328*
X181009Y157254*
X180861Y157328*
X180787Y157475*
Y157770*
X180714Y157918*
X180566Y157992*
X180419Y157918*
X180344Y157770*
Y157475*
X180419Y157328*
X180566Y157254*
X181230Y156442D02*
X180344D01*
Y156811D02*
Y156073D01*
X181083Y169065D02*
X181157Y169139D01*
X181230Y169286*
Y169508*
X181157Y169656*
X181083Y169729*
X180935Y169803*
X180640*
X180492Y169729*
X180419Y169656*
X180344Y169508*
Y169286*
X180419Y169139*
X180492Y169065*
X180344Y168622D02*
X181230D01*
Y167884*
Y167441D02*
X180344D01*
X180787D02*
Y167219D01*
X180344Y166703*
X180787Y167219D02*
X181230Y166703D01*
X180344Y228465D02*
X181230Y228095D01*
X180344Y227726*
X181083Y226545D02*
X181157Y226619D01*
X181230Y226767*
Y226988*
X181157Y227136*
X181083Y227209*
X180935Y227283*
X180640*
X180492Y227209*
X180419Y227136*
X180344Y226988*
Y226767*
X180419Y226619*
X180492Y226545*
X181083Y225364D02*
X181157Y225438D01*
X181230Y225585*
Y225807*
X181157Y225955*
X181083Y226028*
X180935Y226102*
X180640*
X180492Y226028*
X180419Y225955*
X180344Y225807*
Y225585*
X180419Y225438*
X180492Y225364*
X181230Y237913D02*
X180344D01*
Y237396*
X180419Y237249*
X180566Y237175*
X180714Y237249*
X180787Y237396*
Y237913*
Y237396D02*
X181230Y237175D01*
X181009Y236732D02*
X181157Y236658D01*
X181230Y236511*
Y236215*
X181157Y236068*
X181009Y235994*
X180861Y236068*
X180787Y236215*
Y236511*
X180714Y236658*
X180566Y236732*
X180419Y236658*
X180344Y236511*
Y236215*
X180419Y236068*
X180566Y235994*
X181230Y235182D02*
X180344D01*
Y235551D02*
Y234813D01*
X181083Y247805D02*
X181157Y247879D01*
X181230Y248026*
Y248248*
X181157Y248396*
X181083Y248469*
X180935Y248543*
X180640*
X180492Y248469*
X180419Y248396*
X180344Y248248*
Y248026*
X180419Y247879*
X180492Y247805*
X180344Y247362D02*
X181230D01*
Y246624*
Y246181D02*
X180344D01*
X180787D02*
Y245959D01*
X180344Y245443*
X180787Y245959D02*
X181230Y245443D01*
X180344Y307205D02*
X181230Y306835D01*
X180344Y306467*
X181083Y305285D02*
X181157Y305359D01*
X181230Y305507*
Y305728*
X181157Y305876*
X181083Y305950*
X180935Y306024*
X180640*
X180492Y305950*
X180419Y305876*
X180344Y305728*
Y305507*
X180419Y305359*
X180492Y305285*
X181083Y304104D02*
X181157Y304178D01*
X181230Y304326*
Y304547*
X181157Y304695*
X181083Y304769*
X180935Y304843*
X180640*
X180492Y304769*
X180419Y304695*
X180344Y304547*
Y304326*
X180419Y304178*
X180492Y304104*
X181230Y316654D02*
X180344D01*
Y316137*
X180419Y315989*
X180566Y315915*
X180714Y315989*
X180787Y316137*
Y316654*
Y316137D02*
X181230Y315915D01*
X181009Y315472D02*
X181157Y315398D01*
X181230Y315251*
Y314956*
X181157Y314808*
X181009Y314734*
X180861Y314808*
X180787Y314956*
Y315251*
X180714Y315398*
X180566Y315472*
X180419Y315398*
X180344Y315251*
Y314956*
X180419Y314808*
X180566Y314734*
X181230Y313922D02*
X180344D01*
Y314291D02*
Y313553D01*
X181083Y326545D02*
X181157Y326619D01*
X181230Y326767*
Y326988*
X181157Y327136*
X181083Y327209*
X180935Y327283*
X180640*
X180492Y327209*
X180419Y327136*
X180344Y326988*
Y326767*
X180419Y326619*
X180492Y326545*
X180344Y326102D02*
X181230D01*
Y325364*
Y324921D02*
X180344D01*
X180787D02*
Y324700D01*
X180344Y324183*
X180787Y324700D02*
X181230Y324183D01*
X183100Y385945D02*
X183986Y385576D01*
X183100Y385207*
X183839Y384026D02*
X183913Y384099D01*
X183986Y384247*
Y384469*
X183913Y384616*
X183839Y384690*
X183691Y384764*
X183396*
X183248Y384690*
X183174Y384616*
X183100Y384469*
Y384247*
X183174Y384099*
X183248Y384026*
X183839Y382844D02*
X183913Y382918D01*
X183986Y383066*
Y383287*
X183913Y383435*
X183839Y383509*
X183691Y383583*
X183396*
X183248Y383509*
X183174Y383435*
X183100Y383287*
Y383066*
X183174Y382918*
X183248Y382844*
X183986Y395394D02*
X183100D01*
Y394877*
X183174Y394729*
X183322Y394656*
X183470Y394729*
X183543Y394877*
Y395394*
Y394877D02*
X183986Y394656D01*
X183765Y394213D02*
X183913Y394139D01*
X183986Y393991*
Y393696*
X183913Y393548*
X183765Y393474*
X183617Y393548*
X183543Y393696*
Y393991*
X183470Y394139*
X183322Y394213*
X183174Y394139*
X183100Y393991*
Y393696*
X183174Y393548*
X183322Y393474*
X183986Y392662D02*
X183100D01*
Y393031D02*
Y392293D01*
X183839Y405285D02*
X183913Y405359D01*
X183986Y405507*
Y405728*
X183913Y405876*
X183839Y405950*
X183691Y406024*
X183396*
X183248Y405950*
X183174Y405876*
X183100Y405728*
Y405507*
X183174Y405359*
X183248Y405285*
X183100Y404843D02*
X183986D01*
Y404104*
Y403661D02*
X183100D01*
X183543D02*
Y403440D01*
X183100Y402923*
X183543Y403440D02*
X183986Y402923D01*
X204877Y70467D02*
Y70246D01*
X204951*
X205098Y70320*
X205172Y70394*
X205246Y70541*
Y70689*
X205172Y70837*
X205098Y70910*
X204951Y70984*
X204656*
X204508Y70910*
X204434Y70837*
X204360Y70689*
Y70541*
X204434Y70394*
X204508Y70320*
X204656Y70246*
X205246Y69803D02*
X204360D01*
X205246Y69065*
X204360*
X205246Y68622D02*
X204360D01*
Y68179*
X204434Y68031*
X204508Y67957*
X204656Y67884*
X204951*
X205098Y67957*
X205172Y68031*
X205246Y68179*
Y68622*
Y90841D02*
Y90546D01*
Y90694D02*
X204360D01*
Y90841D02*
Y90546D01*
X204951Y89882D02*
X204656D01*
X204508Y89808*
X204434Y89734*
X204360Y89587*
Y89439*
X204434Y89291*
X204508Y89217*
X204656Y89144*
X204951*
X205098Y89217*
X205172Y89291*
X205246Y89439*
Y89587*
X205172Y89734*
X205098Y89808*
X204951Y89882*
X204877Y149207D02*
Y148986D01*
X204951*
X205098Y149060*
X205172Y149134*
X205246Y149281*
Y149429*
X205172Y149577*
X205098Y149650*
X204951Y149724*
X204656*
X204508Y149650*
X204434Y149577*
X204360Y149429*
Y149281*
X204434Y149134*
X204508Y149060*
X204656Y148986*
X205246Y148543D02*
X204360D01*
X205246Y147805*
X204360*
X205246Y147362D02*
X204360D01*
Y146919*
X204434Y146772*
X204508Y146698*
X204656Y146624*
X204951*
X205098Y146698*
X205172Y146772*
X205246Y146919*
Y147362*
Y169581D02*
Y169286D01*
Y169434D02*
X204360D01*
Y169581D02*
Y169286D01*
X204951Y168622D02*
X204656D01*
X204508Y168548*
X204434Y168474*
X204360Y168327*
Y168179*
X204434Y168031*
X204508Y167957*
X204656Y167884*
X204951*
X205098Y167957*
X205172Y168031*
X205246Y168179*
Y168327*
X205172Y168474*
X205098Y168548*
X204951Y168622*
X204877Y227948D02*
Y227726D01*
X204951*
X205098Y227800*
X205172Y227874*
X205246Y228022*
Y228169*
X205172Y228317*
X205098Y228391*
X204951Y228465*
X204656*
X204508Y228391*
X204434Y228317*
X204360Y228169*
Y228022*
X204434Y227874*
X204508Y227800*
X204656Y227726*
X205246Y227283D02*
X204360D01*
X205246Y226545*
X204360*
X205246Y226102D02*
X204360D01*
Y225659*
X204434Y225512*
X204508Y225438*
X204656Y225364*
X204951*
X205098Y225438*
X205172Y225512*
X205246Y225659*
Y226102*
Y248322D02*
Y248026D01*
Y248174D02*
X204360D01*
Y248322D02*
Y248026D01*
X204951Y247362D02*
X204656D01*
X204508Y247288*
X204434Y247215*
X204360Y247067*
Y246919*
X204434Y246772*
X204508Y246698*
X204656Y246624*
X204951*
X205098Y246698*
X205172Y246772*
X205246Y246919*
Y247067*
X205172Y247215*
X205098Y247288*
X204951Y247362*
X204877Y306688D02*
Y306467D01*
X204951*
X205098Y306540*
X205172Y306614*
X205246Y306762*
Y306909*
X205172Y307057*
X205098Y307131*
X204951Y307205*
X204656*
X204508Y307131*
X204434Y307057*
X204360Y306909*
Y306762*
X204434Y306614*
X204508Y306540*
X204656Y306467*
X205246Y306024D02*
X204360D01*
X205246Y305285*
X204360*
X205246Y304843D02*
X204360D01*
Y304400*
X204434Y304252*
X204508Y304178*
X204656Y304104*
X204951*
X205098Y304178*
X205172Y304252*
X205246Y304400*
Y304843*
Y327062D02*
Y326767D01*
Y326914D02*
X204360D01*
Y327062D02*
Y326767D01*
X204951Y326102D02*
X204656D01*
X204508Y326028*
X204434Y325955*
X204360Y325807*
Y325659*
X204434Y325512*
X204508Y325438*
X204656Y325364*
X204951*
X205098Y325438*
X205172Y325512*
X205246Y325659*
Y325807*
X205172Y325955*
X205098Y326028*
X204951Y326102*
X207239Y385428D02*
Y385207D01*
X207313*
X207461Y385280*
X207535Y385354*
X207608Y385502*
Y385650*
X207535Y385797*
X207461Y385871*
X207313Y385945*
X207018*
X206870Y385871*
X206796Y385797*
X206722Y385650*
Y385502*
X206796Y385354*
X206870Y385280*
X207018Y385207*
X207608Y384764D02*
X206722D01*
X207608Y384026*
X206722*
X207608Y383583D02*
X206722D01*
Y383140*
X206796Y382992*
X206870Y382918*
X207018Y382844*
X207313*
X207461Y382918*
X207535Y382992*
X207608Y383140*
Y383583*
Y405802D02*
Y405507D01*
Y405654D02*
X206722D01*
Y405802D02*
Y405507D01*
X207313Y404843D02*
X207018D01*
X206870Y404769*
X206796Y404695*
X206722Y404547*
Y404400*
X206796Y404252*
X206870Y404178*
X207018Y404104*
X207313*
X207461Y404178*
X207535Y404252*
X207608Y404400*
Y404547*
X207535Y404695*
X207461Y404769*
X207313Y404843*
X278770Y70984D02*
X279656Y70615D01*
X278770Y70246*
X279508Y69065D02*
X279582Y69139D01*
X279656Y69286*
Y69508*
X279582Y69656*
X279508Y69729*
X279360Y69803*
X279065*
X278917Y69729*
X278844Y69656*
X278770Y69508*
Y69286*
X278844Y69139*
X278917Y69065*
X279508Y67884D02*
X279582Y67957D01*
X279656Y68105*
Y68327*
X279582Y68474*
X279508Y68548*
X279360Y68622*
X279065*
X278917Y68548*
X278844Y68474*
X278770Y68327*
Y68105*
X278844Y67957*
X278917Y67884*
X279656Y80433D02*
X278770D01*
Y79916*
X278844Y79769*
X278991Y79695*
X279139Y79769*
X279213Y79916*
Y80433*
Y79916D02*
X279656Y79695D01*
X279434Y79252D02*
X279582Y79178D01*
X279656Y79030*
Y78735*
X279582Y78587*
X279434Y78514*
X279287Y78587*
X279213Y78735*
Y79030*
X279139Y79178*
X278991Y79252*
X278844Y79178*
X278770Y79030*
Y78735*
X278844Y78587*
X278991Y78514*
X279656Y77702D02*
X278770D01*
Y78071D02*
Y77333D01*
X279508Y90325D02*
X279582Y90398D01*
X279656Y90546*
Y90768*
X279582Y90915*
X279508Y90989*
X279360Y91063*
X279065*
X278917Y90989*
X278844Y90915*
X278770Y90768*
Y90546*
X278844Y90398*
X278917Y90325*
X278770Y89882D02*
X279656D01*
Y89144*
Y88701D02*
X278770D01*
X279213D02*
Y88479D01*
X278770Y87963*
X279213Y88479D02*
X279656Y87963D01*
X278770Y149724D02*
X279656Y149355D01*
X278770Y148986*
X279508Y147805D02*
X279582Y147879D01*
X279656Y148026*
Y148248*
X279582Y148396*
X279508Y148469*
X279360Y148543*
X279065*
X278917Y148469*
X278844Y148396*
X278770Y148248*
Y148026*
X278844Y147879*
X278917Y147805*
X279508Y146624D02*
X279582Y146698D01*
X279656Y146845*
Y147067*
X279582Y147215*
X279508Y147288*
X279360Y147362*
X279065*
X278917Y147288*
X278844Y147215*
X278770Y147067*
Y146845*
X278844Y146698*
X278917Y146624*
X279656Y159173D02*
X278770D01*
Y158656*
X278844Y158509*
X278991Y158435*
X279139Y158509*
X279213Y158656*
Y159173*
Y158656D02*
X279656Y158435D01*
X279434Y157992D02*
X279582Y157918D01*
X279656Y157770*
Y157475*
X279582Y157328*
X279434Y157254*
X279287Y157328*
X279213Y157475*
Y157770*
X279139Y157918*
X278991Y157992*
X278844Y157918*
X278770Y157770*
Y157475*
X278844Y157328*
X278991Y157254*
X279656Y156442D02*
X278770D01*
Y156811D02*
Y156073D01*
X279508Y169065D02*
X279582Y169139D01*
X279656Y169286*
Y169508*
X279582Y169656*
X279508Y169729*
X279360Y169803*
X279065*
X278917Y169729*
X278844Y169656*
X278770Y169508*
Y169286*
X278844Y169139*
X278917Y169065*
X278770Y168622D02*
X279656D01*
Y167884*
Y167441D02*
X278770D01*
X279213D02*
Y167219D01*
X278770Y166703*
X279213Y167219D02*
X279656Y166703D01*
X278770Y228465D02*
X279656Y228095D01*
X278770Y227726*
X279508Y226545D02*
X279582Y226619D01*
X279656Y226767*
Y226988*
X279582Y227136*
X279508Y227209*
X279360Y227283*
X279065*
X278917Y227209*
X278844Y227136*
X278770Y226988*
Y226767*
X278844Y226619*
X278917Y226545*
X279508Y225364D02*
X279582Y225438D01*
X279656Y225585*
Y225807*
X279582Y225955*
X279508Y226028*
X279360Y226102*
X279065*
X278917Y226028*
X278844Y225955*
X278770Y225807*
Y225585*
X278844Y225438*
X278917Y225364*
X279656Y237913D02*
X278770D01*
Y237396*
X278844Y237249*
X278991Y237175*
X279139Y237249*
X279213Y237396*
Y237913*
Y237396D02*
X279656Y237175D01*
X279434Y236732D02*
X279582Y236658D01*
X279656Y236511*
Y236215*
X279582Y236068*
X279434Y235994*
X279287Y236068*
X279213Y236215*
Y236511*
X279139Y236658*
X278991Y236732*
X278844Y236658*
X278770Y236511*
Y236215*
X278844Y236068*
X278991Y235994*
X279656Y235182D02*
X278770D01*
Y235551D02*
Y234813D01*
X279508Y247805D02*
X279582Y247879D01*
X279656Y248026*
Y248248*
X279582Y248396*
X279508Y248469*
X279360Y248543*
X279065*
X278917Y248469*
X278844Y248396*
X278770Y248248*
Y248026*
X278844Y247879*
X278917Y247805*
X278770Y247362D02*
X279656D01*
Y246624*
Y246181D02*
X278770D01*
X279213D02*
Y245959D01*
X278770Y245443*
X279213Y245959D02*
X279656Y245443D01*
X278770Y307205D02*
X279656Y306835D01*
X278770Y306467*
X279508Y305285D02*
X279582Y305359D01*
X279656Y305507*
Y305728*
X279582Y305876*
X279508Y305950*
X279360Y306024*
X279065*
X278917Y305950*
X278844Y305876*
X278770Y305728*
Y305507*
X278844Y305359*
X278917Y305285*
X279508Y304104D02*
X279582Y304178D01*
X279656Y304326*
Y304547*
X279582Y304695*
X279508Y304769*
X279360Y304843*
X279065*
X278917Y304769*
X278844Y304695*
X278770Y304547*
Y304326*
X278844Y304178*
X278917Y304104*
X279656Y316654D02*
X278770D01*
Y316137*
X278844Y315989*
X278991Y315915*
X279139Y315989*
X279213Y316137*
Y316654*
Y316137D02*
X279656Y315915D01*
X279434Y315472D02*
X279582Y315398D01*
X279656Y315251*
Y314956*
X279582Y314808*
X279434Y314734*
X279287Y314808*
X279213Y314956*
Y315251*
X279139Y315398*
X278991Y315472*
X278844Y315398*
X278770Y315251*
Y314956*
X278844Y314808*
X278991Y314734*
X279656Y313922D02*
X278770D01*
Y314291D02*
Y313553D01*
X279508Y326545D02*
X279582Y326619D01*
X279656Y326767*
Y326988*
X279582Y327136*
X279508Y327209*
X279360Y327283*
X279065*
X278917Y327209*
X278844Y327136*
X278770Y326988*
Y326767*
X278844Y326619*
X278917Y326545*
X278770Y326102D02*
X279656D01*
Y325364*
Y324921D02*
X278770D01*
X279213D02*
Y324700D01*
X278770Y324183*
X279213Y324700D02*
X279656Y324183D01*
X281526Y385945D02*
X282411Y385576D01*
X281526Y385207*
X282264Y384026D02*
X282338Y384099D01*
X282411Y384247*
Y384469*
X282338Y384616*
X282264Y384690*
X282116Y384764*
X281821*
X281673Y384690*
X281600Y384616*
X281526Y384469*
Y384247*
X281600Y384099*
X281673Y384026*
X282264Y382844D02*
X282338Y382918D01*
X282411Y383066*
Y383287*
X282338Y383435*
X282264Y383509*
X282116Y383583*
X281821*
X281673Y383509*
X281600Y383435*
X281526Y383287*
Y383066*
X281600Y382918*
X281673Y382844*
X282411Y395394D02*
X281526D01*
Y394877*
X281600Y394729*
X281747Y394656*
X281895Y394729*
X281969Y394877*
Y395394*
Y394877D02*
X282411Y394656D01*
X282190Y394213D02*
X282338Y394139D01*
X282411Y393991*
Y393696*
X282338Y393548*
X282190Y393474*
X282043Y393548*
X281969Y393696*
Y393991*
X281895Y394139*
X281747Y394213*
X281600Y394139*
X281526Y393991*
Y393696*
X281600Y393548*
X281747Y393474*
X282411Y392662D02*
X281526D01*
Y393031D02*
Y392293D01*
X282264Y405285D02*
X282338Y405359D01*
X282411Y405507*
Y405728*
X282338Y405876*
X282264Y405950*
X282116Y406024*
X281821*
X281673Y405950*
X281600Y405876*
X281526Y405728*
Y405507*
X281600Y405359*
X281673Y405285*
X281526Y404843D02*
X282411D01*
Y404104*
Y403661D02*
X281526D01*
X281969D02*
Y403440D01*
X281526Y402923*
X281969Y403440D02*
X282411Y402923D01*
X303302Y70467D02*
Y70246D01*
X303376*
X303524Y70320*
X303598Y70394*
X303671Y70541*
Y70689*
X303598Y70837*
X303524Y70910*
X303376Y70984*
X303081*
X302933Y70910*
X302859Y70837*
X302785Y70689*
Y70541*
X302859Y70394*
X302933Y70320*
X303081Y70246*
X303671Y69803D02*
X302785D01*
X303671Y69065*
X302785*
X303671Y68622D02*
X302785D01*
Y68179*
X302859Y68031*
X302933Y67957*
X303081Y67884*
X303376*
X303524Y67957*
X303598Y68031*
X303671Y68179*
Y68622*
Y90841D02*
Y90546D01*
Y90694D02*
X302785D01*
Y90841D02*
Y90546D01*
X303376Y89882D02*
X303081D01*
X302933Y89808*
X302859Y89734*
X302785Y89587*
Y89439*
X302859Y89291*
X302933Y89217*
X303081Y89144*
X303376*
X303524Y89217*
X303598Y89291*
X303671Y89439*
Y89587*
X303598Y89734*
X303524Y89808*
X303376Y89882*
X303302Y149207D02*
Y148986D01*
X303376*
X303524Y149060*
X303598Y149134*
X303671Y149281*
Y149429*
X303598Y149577*
X303524Y149650*
X303376Y149724*
X303081*
X302933Y149650*
X302859Y149577*
X302785Y149429*
Y149281*
X302859Y149134*
X302933Y149060*
X303081Y148986*
X303671Y148543D02*
X302785D01*
X303671Y147805*
X302785*
X303671Y147362D02*
X302785D01*
Y146919*
X302859Y146772*
X302933Y146698*
X303081Y146624*
X303376*
X303524Y146698*
X303598Y146772*
X303671Y146919*
Y147362*
Y169581D02*
Y169286D01*
Y169434D02*
X302785D01*
Y169581D02*
Y169286D01*
X303376Y168622D02*
X303081D01*
X302933Y168548*
X302859Y168474*
X302785Y168327*
Y168179*
X302859Y168031*
X302933Y167957*
X303081Y167884*
X303376*
X303524Y167957*
X303598Y168031*
X303671Y168179*
Y168327*
X303598Y168474*
X303524Y168548*
X303376Y168622*
X303302Y227948D02*
Y227726D01*
X303376*
X303524Y227800*
X303598Y227874*
X303671Y228022*
Y228169*
X303598Y228317*
X303524Y228391*
X303376Y228465*
X303081*
X302933Y228391*
X302859Y228317*
X302785Y228169*
Y228022*
X302859Y227874*
X302933Y227800*
X303081Y227726*
X303671Y227283D02*
X302785D01*
X303671Y226545*
X302785*
X303671Y226102D02*
X302785D01*
Y225659*
X302859Y225512*
X302933Y225438*
X303081Y225364*
X303376*
X303524Y225438*
X303598Y225512*
X303671Y225659*
Y226102*
Y248322D02*
Y248026D01*
Y248174D02*
X302785D01*
Y248322D02*
Y248026D01*
X303376Y247362D02*
X303081D01*
X302933Y247288*
X302859Y247215*
X302785Y247067*
Y246919*
X302859Y246772*
X302933Y246698*
X303081Y246624*
X303376*
X303524Y246698*
X303598Y246772*
X303671Y246919*
Y247067*
X303598Y247215*
X303524Y247288*
X303376Y247362*
X303302Y306688D02*
Y306467D01*
X303376*
X303524Y306540*
X303598Y306614*
X303671Y306762*
Y306909*
X303598Y307057*
X303524Y307131*
X303376Y307205*
X303081*
X302933Y307131*
X302859Y307057*
X302785Y306909*
Y306762*
X302859Y306614*
X302933Y306540*
X303081Y306467*
X303671Y306024D02*
X302785D01*
X303671Y305285*
X302785*
X303671Y304843D02*
X302785D01*
Y304400*
X302859Y304252*
X302933Y304178*
X303081Y304104*
X303376*
X303524Y304178*
X303598Y304252*
X303671Y304400*
Y304843*
Y327062D02*
Y326767D01*
Y326914D02*
X302785D01*
Y327062D02*
Y326767D01*
X303376Y326102D02*
X303081D01*
X302933Y326028*
X302859Y325955*
X302785Y325807*
Y325659*
X302859Y325512*
X302933Y325438*
X303081Y325364*
X303376*
X303524Y325438*
X303598Y325512*
X303671Y325659*
Y325807*
X303598Y325955*
X303524Y326028*
X303376Y326102*
X305665Y385428D02*
Y385207D01*
X305738*
X305886Y385280*
X305960Y385354*
X306033Y385502*
Y385650*
X305960Y385797*
X305886Y385871*
X305738Y385945*
X305443*
X305295Y385871*
X305222Y385797*
X305148Y385650*
Y385502*
X305222Y385354*
X305295Y385280*
X305443Y385207*
X306033Y384764D02*
X305148D01*
X306033Y384026*
X305148*
X306033Y383583D02*
X305148D01*
Y383140*
X305222Y382992*
X305295Y382918*
X305443Y382844*
X305738*
X305886Y382918*
X305960Y382992*
X306033Y383140*
Y383583*
Y405802D02*
Y405507D01*
Y405654D02*
X305148D01*
Y405802D02*
Y405507D01*
X305738Y404843D02*
X305443D01*
X305295Y404769*
X305222Y404695*
X305148Y404547*
Y404400*
X305222Y404252*
X305295Y404178*
X305443Y404104*
X305738*
X305886Y404178*
X305960Y404252*
X306033Y404400*
Y404547*
X305960Y404695*
X305886Y404769*
X305738Y404843*
X377195Y70984D02*
X378081Y70615D01*
X377195Y70246*
X377933Y69065D02*
X378007Y69139D01*
X378081Y69286*
Y69508*
X378007Y69656*
X377933Y69729*
X377785Y69803*
X377490*
X377343Y69729*
X377269Y69656*
X377195Y69508*
Y69286*
X377269Y69139*
X377343Y69065*
X377933Y67884D02*
X378007Y67957D01*
X378081Y68105*
Y68327*
X378007Y68474*
X377933Y68548*
X377785Y68622*
X377490*
X377343Y68548*
X377269Y68474*
X377195Y68327*
Y68105*
X377269Y67957*
X377343Y67884*
X378081Y80433D02*
X377195D01*
Y79916*
X377269Y79769*
X377417Y79695*
X377564Y79769*
X377638Y79916*
Y80433*
Y79916D02*
X378081Y79695D01*
X377859Y79252D02*
X378007Y79178D01*
X378081Y79030*
Y78735*
X378007Y78587*
X377859Y78514*
X377712Y78587*
X377638Y78735*
Y79030*
X377564Y79178*
X377417Y79252*
X377269Y79178*
X377195Y79030*
Y78735*
X377269Y78587*
X377417Y78514*
X378081Y77702D02*
X377195D01*
Y78071D02*
Y77333D01*
X377933Y90325D02*
X378007Y90398D01*
X378081Y90546*
Y90768*
X378007Y90915*
X377933Y90989*
X377785Y91063*
X377490*
X377343Y90989*
X377269Y90915*
X377195Y90768*
Y90546*
X377269Y90398*
X377343Y90325*
X377195Y89882D02*
X378081D01*
Y89144*
Y88701D02*
X377195D01*
X377638D02*
Y88479D01*
X377195Y87963*
X377638Y88479D02*
X378081Y87963D01*
X377195Y149724D02*
X378081Y149355D01*
X377195Y148986*
X377933Y147805D02*
X378007Y147879D01*
X378081Y148026*
Y148248*
X378007Y148396*
X377933Y148469*
X377785Y148543*
X377490*
X377343Y148469*
X377269Y148396*
X377195Y148248*
Y148026*
X377269Y147879*
X377343Y147805*
X377933Y146624D02*
X378007Y146698D01*
X378081Y146845*
Y147067*
X378007Y147215*
X377933Y147288*
X377785Y147362*
X377490*
X377343Y147288*
X377269Y147215*
X377195Y147067*
Y146845*
X377269Y146698*
X377343Y146624*
X378081Y159173D02*
X377195D01*
Y158656*
X377269Y158509*
X377417Y158435*
X377564Y158509*
X377638Y158656*
Y159173*
Y158656D02*
X378081Y158435D01*
X377859Y157992D02*
X378007Y157918D01*
X378081Y157770*
Y157475*
X378007Y157328*
X377859Y157254*
X377712Y157328*
X377638Y157475*
Y157770*
X377564Y157918*
X377417Y157992*
X377269Y157918*
X377195Y157770*
Y157475*
X377269Y157328*
X377417Y157254*
X378081Y156442D02*
X377195D01*
Y156811D02*
Y156073D01*
X377933Y169065D02*
X378007Y169139D01*
X378081Y169286*
Y169508*
X378007Y169656*
X377933Y169729*
X377785Y169803*
X377490*
X377343Y169729*
X377269Y169656*
X377195Y169508*
Y169286*
X377269Y169139*
X377343Y169065*
X377195Y168622D02*
X378081D01*
Y167884*
Y167441D02*
X377195D01*
X377638D02*
Y167219D01*
X377195Y166703*
X377638Y167219D02*
X378081Y166703D01*
X377195Y228465D02*
X378081Y228095D01*
X377195Y227726*
X377933Y226545D02*
X378007Y226619D01*
X378081Y226767*
Y226988*
X378007Y227136*
X377933Y227209*
X377785Y227283*
X377490*
X377343Y227209*
X377269Y227136*
X377195Y226988*
Y226767*
X377269Y226619*
X377343Y226545*
X377933Y225364D02*
X378007Y225438D01*
X378081Y225585*
Y225807*
X378007Y225955*
X377933Y226028*
X377785Y226102*
X377490*
X377343Y226028*
X377269Y225955*
X377195Y225807*
Y225585*
X377269Y225438*
X377343Y225364*
X378081Y237913D02*
X377195D01*
Y237396*
X377269Y237249*
X377417Y237175*
X377564Y237249*
X377638Y237396*
Y237913*
Y237396D02*
X378081Y237175D01*
X377859Y236732D02*
X378007Y236658D01*
X378081Y236511*
Y236215*
X378007Y236068*
X377859Y235994*
X377712Y236068*
X377638Y236215*
Y236511*
X377564Y236658*
X377417Y236732*
X377269Y236658*
X377195Y236511*
Y236215*
X377269Y236068*
X377417Y235994*
X378081Y235182D02*
X377195D01*
Y235551D02*
Y234813D01*
X377933Y247805D02*
X378007Y247879D01*
X378081Y248026*
Y248248*
X378007Y248396*
X377933Y248469*
X377785Y248543*
X377490*
X377343Y248469*
X377269Y248396*
X377195Y248248*
Y248026*
X377269Y247879*
X377343Y247805*
X377195Y247362D02*
X378081D01*
Y246624*
Y246181D02*
X377195D01*
X377638D02*
Y245959D01*
X377195Y245443*
X377638Y245959D02*
X378081Y245443D01*
X377195Y307205D02*
X378081Y306835D01*
X377195Y306467*
X377933Y305285D02*
X378007Y305359D01*
X378081Y305507*
Y305728*
X378007Y305876*
X377933Y305950*
X377785Y306024*
X377490*
X377343Y305950*
X377269Y305876*
X377195Y305728*
Y305507*
X377269Y305359*
X377343Y305285*
X377933Y304104D02*
X378007Y304178D01*
X378081Y304326*
Y304547*
X378007Y304695*
X377933Y304769*
X377785Y304843*
X377490*
X377343Y304769*
X377269Y304695*
X377195Y304547*
Y304326*
X377269Y304178*
X377343Y304104*
X378081Y316654D02*
X377195D01*
Y316137*
X377269Y315989*
X377417Y315915*
X377564Y315989*
X377638Y316137*
Y316654*
Y316137D02*
X378081Y315915D01*
X377859Y315472D02*
X378007Y315398D01*
X378081Y315251*
Y314956*
X378007Y314808*
X377859Y314734*
X377712Y314808*
X377638Y314956*
Y315251*
X377564Y315398*
X377417Y315472*
X377269Y315398*
X377195Y315251*
Y314956*
X377269Y314808*
X377417Y314734*
X378081Y313922D02*
X377195D01*
Y314291D02*
Y313553D01*
X377933Y326545D02*
X378007Y326619D01*
X378081Y326767*
Y326988*
X378007Y327136*
X377933Y327209*
X377785Y327283*
X377490*
X377343Y327209*
X377269Y327136*
X377195Y326988*
Y326767*
X377269Y326619*
X377343Y326545*
X377195Y326102D02*
X378081D01*
Y325364*
Y324921D02*
X377195D01*
X377638D02*
Y324700D01*
X377195Y324183*
X377638Y324700D02*
X378081Y324183D01*
X379951Y385945D02*
X380837Y385576D01*
X379951Y385207*
X380689Y384026D02*
X380763Y384099D01*
X380837Y384247*
Y384469*
X380763Y384616*
X380689Y384690*
X380541Y384764*
X380246*
X380098Y384690*
X380025Y384616*
X379951Y384469*
Y384247*
X380025Y384099*
X380098Y384026*
X380689Y382844D02*
X380763Y382918D01*
X380837Y383066*
Y383287*
X380763Y383435*
X380689Y383509*
X380541Y383583*
X380246*
X380098Y383509*
X380025Y383435*
X379951Y383287*
Y383066*
X380025Y382918*
X380098Y382844*
X380837Y395394D02*
X379951D01*
Y394877*
X380025Y394729*
X380172Y394656*
X380320Y394729*
X380394Y394877*
Y395394*
Y394877D02*
X380837Y394656D01*
X380615Y394213D02*
X380763Y394139D01*
X380837Y393991*
Y393696*
X380763Y393548*
X380615Y393474*
X380468Y393548*
X380394Y393696*
Y393991*
X380320Y394139*
X380172Y394213*
X380025Y394139*
X379951Y393991*
Y393696*
X380025Y393548*
X380172Y393474*
X380837Y392662D02*
X379951D01*
Y393031D02*
Y392293D01*
X380689Y405285D02*
X380763Y405359D01*
X380837Y405507*
Y405728*
X380763Y405876*
X380689Y405950*
X380541Y406024*
X380246*
X380098Y405950*
X380025Y405876*
X379951Y405728*
Y405507*
X380025Y405359*
X380098Y405285*
X379951Y404843D02*
X380837D01*
Y404104*
Y403661D02*
X379951D01*
X380394D02*
Y403440D01*
X379951Y402923*
X380394Y403440D02*
X380837Y402923D01*
X401728Y70467D02*
Y70246D01*
X401801*
X401949Y70320*
X402023Y70394*
X402096Y70541*
Y70689*
X402023Y70837*
X401949Y70910*
X401801Y70984*
X401506*
X401358Y70910*
X401285Y70837*
X401211Y70689*
Y70541*
X401285Y70394*
X401358Y70320*
X401506Y70246*
X402096Y69803D02*
X401211D01*
X402096Y69065*
X401211*
X402096Y68622D02*
X401211D01*
Y68179*
X401285Y68031*
X401358Y67957*
X401506Y67884*
X401801*
X401949Y67957*
X402023Y68031*
X402096Y68179*
Y68622*
Y90841D02*
Y90546D01*
Y90694D02*
X401211D01*
Y90841D02*
Y90546D01*
X401801Y89882D02*
X401506D01*
X401358Y89808*
X401285Y89734*
X401211Y89587*
Y89439*
X401285Y89291*
X401358Y89217*
X401506Y89144*
X401801*
X401949Y89217*
X402023Y89291*
X402096Y89439*
Y89587*
X402023Y89734*
X401949Y89808*
X401801Y89882*
X401728Y149207D02*
Y148986D01*
X401801*
X401949Y149060*
X402023Y149134*
X402096Y149281*
Y149429*
X402023Y149577*
X401949Y149650*
X401801Y149724*
X401506*
X401358Y149650*
X401285Y149577*
X401211Y149429*
Y149281*
X401285Y149134*
X401358Y149060*
X401506Y148986*
X402096Y148543D02*
X401211D01*
X402096Y147805*
X401211*
X402096Y147362D02*
X401211D01*
Y146919*
X401285Y146772*
X401358Y146698*
X401506Y146624*
X401801*
X401949Y146698*
X402023Y146772*
X402096Y146919*
Y147362*
Y169581D02*
Y169286D01*
Y169434D02*
X401211D01*
Y169581D02*
Y169286D01*
X401801Y168622D02*
X401506D01*
X401358Y168548*
X401285Y168474*
X401211Y168327*
Y168179*
X401285Y168031*
X401358Y167957*
X401506Y167884*
X401801*
X401949Y167957*
X402023Y168031*
X402096Y168179*
Y168327*
X402023Y168474*
X401949Y168548*
X401801Y168622*
X401728Y227948D02*
Y227726D01*
X401801*
X401949Y227800*
X402023Y227874*
X402096Y228022*
Y228169*
X402023Y228317*
X401949Y228391*
X401801Y228465*
X401506*
X401358Y228391*
X401285Y228317*
X401211Y228169*
Y228022*
X401285Y227874*
X401358Y227800*
X401506Y227726*
X402096Y227283D02*
X401211D01*
X402096Y226545*
X401211*
X402096Y226102D02*
X401211D01*
Y225659*
X401285Y225512*
X401358Y225438*
X401506Y225364*
X401801*
X401949Y225438*
X402023Y225512*
X402096Y225659*
Y226102*
Y248322D02*
Y248026D01*
Y248174D02*
X401211D01*
Y248322D02*
Y248026D01*
X401801Y247362D02*
X401506D01*
X401358Y247288*
X401285Y247215*
X401211Y247067*
Y246919*
X401285Y246772*
X401358Y246698*
X401506Y246624*
X401801*
X401949Y246698*
X402023Y246772*
X402096Y246919*
Y247067*
X402023Y247215*
X401949Y247288*
X401801Y247362*
X401728Y306688D02*
Y306467D01*
X401801*
X401949Y306540*
X402023Y306614*
X402096Y306762*
Y306909*
X402023Y307057*
X401949Y307131*
X401801Y307205*
X401506*
X401358Y307131*
X401285Y307057*
X401211Y306909*
Y306762*
X401285Y306614*
X401358Y306540*
X401506Y306467*
X402096Y306024D02*
X401211D01*
X402096Y305285*
X401211*
X402096Y304843D02*
X401211D01*
Y304400*
X401285Y304252*
X401358Y304178*
X401506Y304104*
X401801*
X401949Y304178*
X402023Y304252*
X402096Y304400*
Y304843*
Y327062D02*
Y326767D01*
Y326914D02*
X401211D01*
Y327062D02*
Y326767D01*
X401801Y326102D02*
X401506D01*
X401358Y326028*
X401285Y325955*
X401211Y325807*
Y325659*
X401285Y325512*
X401358Y325438*
X401506Y325364*
X401801*
X401949Y325438*
X402023Y325512*
X402096Y325659*
Y325807*
X402023Y325955*
X401949Y326028*
X401801Y326102*
X404090Y385428D02*
Y385207D01*
X404163*
X404311Y385280*
X404385Y385354*
X404459Y385502*
Y385650*
X404385Y385797*
X404311Y385871*
X404163Y385945*
X403868*
X403720Y385871*
X403647Y385797*
X403573Y385650*
Y385502*
X403647Y385354*
X403720Y385280*
X403868Y385207*
X404459Y384764D02*
X403573D01*
X404459Y384026*
X403573*
X404459Y383583D02*
X403573D01*
Y383140*
X403647Y382992*
X403720Y382918*
X403868Y382844*
X404163*
X404311Y382918*
X404385Y382992*
X404459Y383140*
Y383583*
Y405802D02*
Y405507D01*
Y405654D02*
X403573D01*
Y405802D02*
Y405507D01*
X404163Y404843D02*
X403868D01*
X403720Y404769*
X403647Y404695*
X403573Y404547*
Y404400*
X403647Y404252*
X403720Y404178*
X403868Y404104*
X404163*
X404311Y404178*
X404385Y404252*
X404459Y404400*
Y404547*
X404385Y404695*
X404311Y404769*
X404163Y404843*
X475620Y70984D02*
X476506Y70615D01*
X475620Y70246*
X476358Y69065D02*
X476432Y69139D01*
X476506Y69286*
Y69508*
X476432Y69656*
X476358Y69729*
X476211Y69803*
X475915*
X475768Y69729*
X475694Y69656*
X475620Y69508*
Y69286*
X475694Y69139*
X475768Y69065*
X476358Y67884D02*
X476432Y67957D01*
X476506Y68105*
Y68327*
X476432Y68474*
X476358Y68548*
X476211Y68622*
X475915*
X475768Y68548*
X475694Y68474*
X475620Y68327*
Y68105*
X475694Y67957*
X475768Y67884*
X476506Y80433D02*
X475620D01*
Y79916*
X475694Y79769*
X475842Y79695*
X475989Y79769*
X476063Y79916*
Y80433*
Y79916D02*
X476506Y79695D01*
X476285Y79252D02*
X476432Y79178D01*
X476506Y79030*
Y78735*
X476432Y78587*
X476285Y78514*
X476137Y78587*
X476063Y78735*
Y79030*
X475989Y79178*
X475842Y79252*
X475694Y79178*
X475620Y79030*
Y78735*
X475694Y78587*
X475842Y78514*
X476506Y77702D02*
X475620D01*
Y78071D02*
Y77333D01*
X476358Y90325D02*
X476432Y90398D01*
X476506Y90546*
Y90768*
X476432Y90915*
X476358Y90989*
X476211Y91063*
X475915*
X475768Y90989*
X475694Y90915*
X475620Y90768*
Y90546*
X475694Y90398*
X475768Y90325*
X475620Y89882D02*
X476506D01*
Y89144*
Y88701D02*
X475620D01*
X476063D02*
Y88479D01*
X475620Y87963*
X476063Y88479D02*
X476506Y87963D01*
X475620Y149724D02*
X476506Y149355D01*
X475620Y148986*
X476358Y147805D02*
X476432Y147879D01*
X476506Y148026*
Y148248*
X476432Y148396*
X476358Y148469*
X476211Y148543*
X475915*
X475768Y148469*
X475694Y148396*
X475620Y148248*
Y148026*
X475694Y147879*
X475768Y147805*
X476358Y146624D02*
X476432Y146698D01*
X476506Y146845*
Y147067*
X476432Y147215*
X476358Y147288*
X476211Y147362*
X475915*
X475768Y147288*
X475694Y147215*
X475620Y147067*
Y146845*
X475694Y146698*
X475768Y146624*
X476506Y159173D02*
X475620D01*
Y158656*
X475694Y158509*
X475842Y158435*
X475989Y158509*
X476063Y158656*
Y159173*
Y158656D02*
X476506Y158435D01*
X476285Y157992D02*
X476432Y157918D01*
X476506Y157770*
Y157475*
X476432Y157328*
X476285Y157254*
X476137Y157328*
X476063Y157475*
Y157770*
X475989Y157918*
X475842Y157992*
X475694Y157918*
X475620Y157770*
Y157475*
X475694Y157328*
X475842Y157254*
X476506Y156442D02*
X475620D01*
Y156811D02*
Y156073D01*
X476358Y169065D02*
X476432Y169139D01*
X476506Y169286*
Y169508*
X476432Y169656*
X476358Y169729*
X476211Y169803*
X475915*
X475768Y169729*
X475694Y169656*
X475620Y169508*
Y169286*
X475694Y169139*
X475768Y169065*
X475620Y168622D02*
X476506D01*
Y167884*
Y167441D02*
X475620D01*
X476063D02*
Y167219D01*
X475620Y166703*
X476063Y167219D02*
X476506Y166703D01*
X475620Y228465D02*
X476506Y228095D01*
X475620Y227726*
X476358Y226545D02*
X476432Y226619D01*
X476506Y226767*
Y226988*
X476432Y227136*
X476358Y227209*
X476211Y227283*
X475915*
X475768Y227209*
X475694Y227136*
X475620Y226988*
Y226767*
X475694Y226619*
X475768Y226545*
X476358Y225364D02*
X476432Y225438D01*
X476506Y225585*
Y225807*
X476432Y225955*
X476358Y226028*
X476211Y226102*
X475915*
X475768Y226028*
X475694Y225955*
X475620Y225807*
Y225585*
X475694Y225438*
X475768Y225364*
X476506Y237913D02*
X475620D01*
Y237396*
X475694Y237249*
X475842Y237175*
X475989Y237249*
X476063Y237396*
Y237913*
Y237396D02*
X476506Y237175D01*
X476285Y236732D02*
X476432Y236658D01*
X476506Y236511*
Y236215*
X476432Y236068*
X476285Y235994*
X476137Y236068*
X476063Y236215*
Y236511*
X475989Y236658*
X475842Y236732*
X475694Y236658*
X475620Y236511*
Y236215*
X475694Y236068*
X475842Y235994*
X476506Y235182D02*
X475620D01*
Y235551D02*
Y234813D01*
X476358Y247805D02*
X476432Y247879D01*
X476506Y248026*
Y248248*
X476432Y248396*
X476358Y248469*
X476211Y248543*
X475915*
X475768Y248469*
X475694Y248396*
X475620Y248248*
Y248026*
X475694Y247879*
X475768Y247805*
X475620Y247362D02*
X476506D01*
Y246624*
Y246181D02*
X475620D01*
X476063D02*
Y245959D01*
X475620Y245443*
X476063Y245959D02*
X476506Y245443D01*
X475620Y307205D02*
X476506Y306835D01*
X475620Y306467*
X476358Y305285D02*
X476432Y305359D01*
X476506Y305507*
Y305728*
X476432Y305876*
X476358Y305950*
X476211Y306024*
X475915*
X475768Y305950*
X475694Y305876*
X475620Y305728*
Y305507*
X475694Y305359*
X475768Y305285*
X476358Y304104D02*
X476432Y304178D01*
X476506Y304326*
Y304547*
X476432Y304695*
X476358Y304769*
X476211Y304843*
X475915*
X475768Y304769*
X475694Y304695*
X475620Y304547*
Y304326*
X475694Y304178*
X475768Y304104*
X476506Y316654D02*
X475620D01*
Y316137*
X475694Y315989*
X475842Y315915*
X475989Y315989*
X476063Y316137*
Y316654*
Y316137D02*
X476506Y315915D01*
X476285Y315472D02*
X476432Y315398D01*
X476506Y315251*
Y314956*
X476432Y314808*
X476285Y314734*
X476137Y314808*
X476063Y314956*
Y315251*
X475989Y315398*
X475842Y315472*
X475694Y315398*
X475620Y315251*
Y314956*
X475694Y314808*
X475842Y314734*
X476506Y313922D02*
X475620D01*
Y314291D02*
Y313553D01*
X476358Y326545D02*
X476432Y326619D01*
X476506Y326767*
Y326988*
X476432Y327136*
X476358Y327209*
X476211Y327283*
X475915*
X475768Y327209*
X475694Y327136*
X475620Y326988*
Y326767*
X475694Y326619*
X475768Y326545*
X475620Y326102D02*
X476506D01*
Y325364*
Y324921D02*
X475620D01*
X476063D02*
Y324700D01*
X475620Y324183*
X476063Y324700D02*
X476506Y324183D01*
X478376Y385945D02*
X479262Y385576D01*
X478376Y385207*
X479114Y384026D02*
X479188Y384099D01*
X479262Y384247*
Y384469*
X479188Y384616*
X479114Y384690*
X478967Y384764*
X478671*
X478524Y384690*
X478450Y384616*
X478376Y384469*
Y384247*
X478450Y384099*
X478524Y384026*
X479114Y382844D02*
X479188Y382918D01*
X479262Y383066*
Y383287*
X479188Y383435*
X479114Y383509*
X478967Y383583*
X478671*
X478524Y383509*
X478450Y383435*
X478376Y383287*
Y383066*
X478450Y382918*
X478524Y382844*
X479262Y395394D02*
X478376D01*
Y394877*
X478450Y394729*
X478598Y394656*
X478745Y394729*
X478819Y394877*
Y395394*
Y394877D02*
X479262Y394656D01*
X479041Y394213D02*
X479188Y394139D01*
X479262Y393991*
Y393696*
X479188Y393548*
X479041Y393474*
X478893Y393548*
X478819Y393696*
Y393991*
X478745Y394139*
X478598Y394213*
X478450Y394139*
X478376Y393991*
Y393696*
X478450Y393548*
X478598Y393474*
X479262Y392662D02*
X478376D01*
Y393031D02*
Y392293D01*
X479114Y405285D02*
X479188Y405359D01*
X479262Y405507*
Y405728*
X479188Y405876*
X479114Y405950*
X478967Y406024*
X478671*
X478524Y405950*
X478450Y405876*
X478376Y405728*
Y405507*
X478450Y405359*
X478524Y405285*
X478376Y404843D02*
X479262D01*
Y404104*
Y403661D02*
X478376D01*
X478819D02*
Y403440D01*
X478376Y402923*
X478819Y403440D02*
X479262Y402923D01*
X500153Y70467D02*
Y70246D01*
X500226*
X500374Y70320*
X500448Y70394*
X500522Y70541*
Y70689*
X500448Y70837*
X500374Y70910*
X500226Y70984*
X499931*
X499783Y70910*
X499710Y70837*
X499636Y70689*
Y70541*
X499710Y70394*
X499783Y70320*
X499931Y70246*
X500522Y69803D02*
X499636D01*
X500522Y69065*
X499636*
X500522Y68622D02*
X499636D01*
Y68179*
X499710Y68031*
X499783Y67957*
X499931Y67884*
X500226*
X500374Y67957*
X500448Y68031*
X500522Y68179*
Y68622*
Y90841D02*
Y90546D01*
Y90694D02*
X499636D01*
Y90841D02*
Y90546D01*
X500226Y89882D02*
X499931D01*
X499783Y89808*
X499710Y89734*
X499636Y89587*
Y89439*
X499710Y89291*
X499783Y89217*
X499931Y89144*
X500226*
X500374Y89217*
X500448Y89291*
X500522Y89439*
Y89587*
X500448Y89734*
X500374Y89808*
X500226Y89882*
X500153Y149207D02*
Y148986D01*
X500226*
X500374Y149060*
X500448Y149134*
X500522Y149281*
Y149429*
X500448Y149577*
X500374Y149650*
X500226Y149724*
X499931*
X499783Y149650*
X499710Y149577*
X499636Y149429*
Y149281*
X499710Y149134*
X499783Y149060*
X499931Y148986*
X500522Y148543D02*
X499636D01*
X500522Y147805*
X499636*
X500522Y147362D02*
X499636D01*
Y146919*
X499710Y146772*
X499783Y146698*
X499931Y146624*
X500226*
X500374Y146698*
X500448Y146772*
X500522Y146919*
Y147362*
Y169581D02*
Y169286D01*
Y169434D02*
X499636D01*
Y169581D02*
Y169286D01*
X500226Y168622D02*
X499931D01*
X499783Y168548*
X499710Y168474*
X499636Y168327*
Y168179*
X499710Y168031*
X499783Y167957*
X499931Y167884*
X500226*
X500374Y167957*
X500448Y168031*
X500522Y168179*
Y168327*
X500448Y168474*
X500374Y168548*
X500226Y168622*
X500153Y227948D02*
Y227726D01*
X500226*
X500374Y227800*
X500448Y227874*
X500522Y228022*
Y228169*
X500448Y228317*
X500374Y228391*
X500226Y228465*
X499931*
X499783Y228391*
X499710Y228317*
X499636Y228169*
Y228022*
X499710Y227874*
X499783Y227800*
X499931Y227726*
X500522Y227283D02*
X499636D01*
X500522Y226545*
X499636*
X500522Y226102D02*
X499636D01*
Y225659*
X499710Y225512*
X499783Y225438*
X499931Y225364*
X500226*
X500374Y225438*
X500448Y225512*
X500522Y225659*
Y226102*
Y248322D02*
Y248026D01*
Y248174D02*
X499636D01*
Y248322D02*
Y248026D01*
X500226Y247362D02*
X499931D01*
X499783Y247288*
X499710Y247215*
X499636Y247067*
Y246919*
X499710Y246772*
X499783Y246698*
X499931Y246624*
X500226*
X500374Y246698*
X500448Y246772*
X500522Y246919*
Y247067*
X500448Y247215*
X500374Y247288*
X500226Y247362*
X500153Y306688D02*
Y306467D01*
X500226*
X500374Y306540*
X500448Y306614*
X500522Y306762*
Y306909*
X500448Y307057*
X500374Y307131*
X500226Y307205*
X499931*
X499783Y307131*
X499710Y307057*
X499636Y306909*
Y306762*
X499710Y306614*
X499783Y306540*
X499931Y306467*
X500522Y306024D02*
X499636D01*
X500522Y305285*
X499636*
X500522Y304843D02*
X499636D01*
Y304400*
X499710Y304252*
X499783Y304178*
X499931Y304104*
X500226*
X500374Y304178*
X500448Y304252*
X500522Y304400*
Y304843*
Y327062D02*
Y326767D01*
Y326914D02*
X499636D01*
Y327062D02*
Y326767D01*
X500226Y326102D02*
X499931D01*
X499783Y326028*
X499710Y325955*
X499636Y325807*
Y325659*
X499710Y325512*
X499783Y325438*
X499931Y325364*
X500226*
X500374Y325438*
X500448Y325512*
X500522Y325659*
Y325807*
X500448Y325955*
X500374Y326028*
X500226Y326102*
X502515Y385428D02*
Y385207D01*
X502589*
X502736Y385280*
X502810Y385354*
X502884Y385502*
Y385650*
X502810Y385797*
X502736Y385871*
X502589Y385945*
X502293*
X502146Y385871*
X502072Y385797*
X501998Y385650*
Y385502*
X502072Y385354*
X502146Y385280*
X502293Y385207*
X502884Y384764D02*
X501998D01*
X502884Y384026*
X501998*
X502884Y383583D02*
X501998D01*
Y383140*
X502072Y382992*
X502146Y382918*
X502293Y382844*
X502589*
X502736Y382918*
X502810Y382992*
X502884Y383140*
Y383583*
Y405802D02*
Y405507D01*
Y405654D02*
X501998D01*
Y405802D02*
Y405507D01*
X502589Y404843D02*
X502293D01*
X502146Y404769*
X502072Y404695*
X501998Y404547*
Y404400*
X502072Y404252*
X502146Y404178*
X502293Y404104*
X502589*
X502736Y404178*
X502810Y404252*
X502884Y404400*
Y404547*
X502810Y404695*
X502736Y404769*
X502589Y404843*
D02*
D14*
X39Y39D02*
X629961D01*
Y472480*
X39*
Y39*
X0Y0D02*
M02*
